<svg xmlns="http://www.w3.org/2000/svg" xmlns:xlink="http://www.w3.org/1999/xlink" width="85mm" height="112mm" viewBox="0 0 240.94 317.48"><defs><style>.cls-1{fill:#9d9fa1;}.cls-2{fill:#fff;}.cls-3{fill:#093a83;}.cls-4{fill:#1a0a43;}.cls-5{clip-path:url(#clip-path);}.cls-6{fill:none;stroke:#1a1a18;stroke-width:0.28px;}</style><clipPath id="clip-path"><path class="cls-1" d="M99.71,81.46A79.09,79.09,0,0,1,120.47,79a79.62,79.62,0,0,1,20.78,2.43c-.52-2-9.6-4.21-20.78-4.21s-20.23,2.2-20.76,4.21m-.85-4.8c0-.91.07-1.65.28-1.67s.43.7.5,1.61-.07,1.65-.28,1.66h0c-.2,0-.42-.71-.49-1.6m42.46-.06c.06-.91.28-1.63.49-1.61s.34.76.28,1.67-.28,1.6-.49,1.6h0c-.21,0-.33-.76-.27-1.66M102,74.49c0-1.07.47-1.94,1.06-1.94s1.06.87,1.06,1.94-.48,1.93-1.06,1.93S102,75.56,102,74.49m34.82,0c0-1.07.47-1.94,1.06-1.94s1.06.87,1.06,1.94-.47,1.93-1.06,1.93-1.06-.86-1.06-1.93m-30.19-.84a11.2,11.2,0,0,1,1.23-2.53,10.37,10.37,0,0,1,1.37,2.21,19.42,19.42,0,0,1-1.3,2.31,16.05,16.05,0,0,1-1.3-2m25.08-.32a9.63,9.63,0,0,1,1.37-2.21,10.76,10.76,0,0,1,1.22,2.53,16.13,16.13,0,0,1-1.29,2,17,17,0,0,1-1.3-2.31m-19.79-.66a1.74,1.74,0,1,1,1.73,1.78,1.77,1.77,0,0,1-1.73-1.78m13.62,0a1.74,1.74,0,1,1,1.74,1.78,1.77,1.77,0,0,1-1.74-1.78m-7.27,1.67a35.12,35.12,0,0,1-.1-3.74,8.47,8.47,0,0,1,2.29-.22,8.6,8.6,0,0,1,2.31.22,32.61,32.61,0,0,1-.11,3.74c-.51,0-1.41.07-2.2.07s-1.68,0-2.19-.07M99.2,72.52l-.39.25L99,73.93s-.89.28-.89,2.24c0,2.81,1.4,3.12,1.4,3.12l.14.42c2.81-2.11,11.49-3.65,20.84-3.65s18.05,1.54,20.86,3.65l.13-.42s1.4-.31,1.4-3.12c0-2-.88-2.24-.88-2.24l.16-1.16-.39-.25c-.07,0-6.6-4-21.28-4s-21.19,4-21.27,4m-3-5.4c-.38-.58-.53-1.16-.33-1.3s.67.23,1.05.8.52,1.17.32,1.3l-.1,0c-.23,0-.62-.33-.94-.83m47.61.8c-.2-.13-.06-.72.33-1.3s.85-.94,1-.8.06.72-.32,1.3-.72.83-.95.83Zm-39.21-5.08c0-.63.13-1.91.25-2.69a11.16,11.16,0,0,1,1.88,2.24,18.15,18.15,0,0,1-.31,2.69,20.3,20.3,0,0,1-1.82-2.24m29.73-.45a11.13,11.13,0,0,1,1.87-2.24c.12.78.2,2.06.26,2.69a19.26,19.26,0,0,1-1.83,2.24,16.9,16.9,0,0,1-.3-2.69m-15-.13s0-1.47,0-1.95,0-2,0-2a6.42,6.42,0,0,1,2.57,0s0,1.52,0,2,0,1.95,0,1.95-.79.07-1.26.07-1.24-.07-1.24-.07m-2.14-6.39a3.67,3.67,0,0,0,.68,2.16,4.87,4.87,0,0,0-1.45-.29c-.68,0-2,.52-2,3.36s1.47,3.67,2.53,3.67a3,3,0,0,0,.47-.07s-.41.7-1.84.7a4.71,4.71,0,0,1-2.18-.74,3.13,3.13,0,0,1-2.64,1.2,1.57,1.57,0,0,1-1.21-.5s2,.35,2-2.64-2-4-2.59-4a3,3,0,0,0-2,.9s.06-.6.06-1.17A2.27,2.27,0,0,0,104.77,56c-1.87,0-3.63,1-3.63,2.38,0,1,1.45,2.86,1.45,2.86a2,2,0,0,0-.5,0,1.48,1.48,0,0,0-1.7,1.68c0,1.58,1.34,3.81,2.94,3.81a2.18,2.18,0,0,0,1.35-.4,1.89,1.89,0,0,1-2,1.16,1.28,1.28,0,0,1-1.15-.46s-.23,1.26-1.2,1.26-1-.3-1-.3,2.3-.4,1-3C99.45,63.27,98.89,63,98.4,63s-1.23.74-1.23.74A7.71,7.71,0,0,0,97.43,62c0-.84-.4-2-1.58-2-1.63,0-4.2,2.59-4.2,2.59s3.12,1.49,3.68,2.5a1.21,1.21,0,0,0-.27.79,2.74,2.74,0,0,0,2.69,2.86,17.58,17.58,0,0,1,.85,2.76s6.61-4.2,21.87-4.2,21.88,4.2,21.88,4.2a17.58,17.58,0,0,1,.85-2.76,2.74,2.74,0,0,0,2.69-2.86,1.27,1.27,0,0,0-.26-.79c.55-1,3.67-2.5,3.67-2.5S146.73,60,145.11,60c-1.19,0-1.59,1.15-1.59,2a7.71,7.71,0,0,0,.26,1.77s-.73-.74-1.22-.74-1.06.24-1.88,1.86c-1.32,2.6,1,3,1,3s-.07.3-1,.3-1.2-1.26-1.2-1.26-.26.46-1.15.46a1.9,1.9,0,0,1-2-1.16,2.2,2.2,0,0,0,1.34.4c1.61,0,2.95-2.23,2.95-3.81a1.48,1.48,0,0,0-1.7-1.68,2,2,0,0,0-.5,0s1.46-1.82,1.46-2.86c0-1.37-1.76-2.38-3.63-2.38a2.28,2.28,0,0,0-2.25,2.51c0,.57.06,1.17.06,1.17a3,3,0,0,0-2-.9c-.56,0-2.59,1-2.59,4s2,2.64,2,2.64a1.56,1.56,0,0,1-1.2.5,3.11,3.11,0,0,1-2.64-1.2,4.77,4.77,0,0,1-2.19.74c-1.43,0-1.84-.7-1.84-.7a3,3,0,0,0,.48.07c1.06,0,2.52-.82,2.52-3.67s-1.29-3.36-2-3.36a4.89,4.89,0,0,0-1.46.29,3.63,3.63,0,0,0,.69-2.16c0-1.58-1.85-2.21-3.4-2.21s-3.38.63-3.38,2.21m2.51-3.64a1.3,1.3,0,0,1-.42-1,1.32,1.32,0,0,1,1.29-1.34,1.28,1.28,0,0,1,.58.15,1.34,1.34,0,0,1-.58,2.53,1.23,1.23,0,0,1-.87-.37m-.71-4.37a1.61,1.61,0,0,1,1.58-1.64,1.44,1.44,0,0,1,.62.13,1.64,1.64,0,0,1,1,1.51,1.59,1.59,0,1,1-3.18,0m-2.53-1.69A4.34,4.34,0,0,0,117.9,49l-.46,4.8a5.79,5.79,0,0,1,6.07,0l-.46-4.8a4.25,4.25,0,0,0,1.54-2.81,10.86,10.86,0,0,0-8.23,0M88.89,59.12h0a1.16,1.16,0,1,1,2.32,0h0a1.16,1.16,0,1,1-2.32,0m-1-3.28h0a1.21,1.21,0,1,1,2.41,0h0a1.21,1.21,0,1,1-2.41,0m10.57-1.26a1.27,1.27,0,0,1,1.25-1.3,1.26,1.26,0,0,1,1.26,1.3,1.26,1.26,0,1,1-2.51,0M88,52.35a1.3,1.3,0,1,1,1.3,1.33A1.33,1.33,0,0,1,88,52.35M98,52,97.89,52l-.11-.09-.09-.13-.09-.1,0-.09a1.51,1.51,0,0,1-.22-.77h0a1.53,1.53,0,0,1,1.5-1.54h0a1.54,1.54,0,0,1,0,3.08A1.4,1.4,0,0,1,98,52m5.81-2.57a.94.94,0,0,1-.09-.43A1.23,1.23,0,0,1,105,47.68c2,0,7.06,2.37,10.24,2.81-.29.11-.66.37-3.27.37a50.13,50.13,0,0,1-8.19-1.39m-14-.38a1.4,1.4,0,1,1,1.4,1.44,1.41,1.41,0,0,1-1.4-1.44M112.43,48a1.2,1.2,0,0,1-.71-1.1,1.18,1.18,0,0,1,1.16-1.19,1.14,1.14,0,0,1,.45.1,1.2,1.2,0,0,1-.45,2.29,1.14,1.14,0,0,1-.45-.1m-19.25-.87h0a1.54,1.54,0,1,1,3.08,0h0a1.54,1.54,0,1,1-3.08,0m4.36-.29a1.53,1.53,0,0,1,2.15-1.46,1.6,1.6,0,0,1-.61,3.05h0a1.57,1.57,0,0,1-1.54-1.59m10.87-1.41a1.32,1.32,0,0,1,1.3-1.34,1.25,1.25,0,0,1,.79.3,1.32,1.32,0,1,1-2.09,1m-3.55-.77,0-.09,0-.06a1.64,1.64,0,0,1-.09-.5h0a1.41,1.41,0,0,1,1.4-1.44,1.32,1.32,0,0,1,.78.25l.08.06.13.11.07.1.1.12,0,.07.09.17h0a1.45,1.45,0,0,1,.1.55h0a1.41,1.41,0,0,1-1.39,1.44h0a1.37,1.37,0,0,1-1.24-.79m-3.65.5-.06-.06h0a1.56,1.56,0,0,1-.44-1.09h0a1.5,1.5,0,1,1,3,0h0a1.52,1.52,0,0,1-1.5,1.54h0a1.46,1.46,0,0,1-1-.39m-.57-2.76A2.29,2.29,0,0,0,100,44a2.55,2.55,0,0,0,.11.74,2.17,2.17,0,0,0-1-.25,2.2,2.2,0,0,0-1.59.69,2.3,2.3,0,0,0-.63,1.19,2.31,2.31,0,0,0-.54-.9,2.23,2.23,0,0,0-3.21,0,2.37,2.37,0,0,0-.66,1.65v.2a2.06,2.06,0,0,0-1.28-.45,2.1,2.1,0,0,0-1.51.64,2.26,2.26,0,0,0-.28,2.72h-.11a2,2,0,0,0-1.43.61,2.14,2.14,0,0,0,0,3,2.08,2.08,0,0,0,.32.27,1.7,1.7,0,0,0-.46.35,2,2,0,0,0,0,2.8,1.78,1.78,0,0,0,1,.54,2,2,0,0,0,0,2.71,2,2,0,0,0,1.33.56c.27,0,1.15-.27,1.56-.27a.71.71,0,0,1,.66.27l2.55-1.64c-.45-1.58-1.43-3.21-1.43-5.24a3.64,3.64,0,0,1,3.24-3.4,3.44,3.44,0,0,0,.64,1.61,2.16,2.16,0,0,0,1.15.63,2.24,2.24,0,0,0-.7,1.57A2,2,0,0,0,98.3,56a2,2,0,0,0,1.39.6c.56,0,1.33-.32,1.72-.32a6.51,6.51,0,0,1,3.24-1.12c-.13-.53-.72-3.38-.72-3.38a26.72,26.72,0,0,0,5.65.61c5.24,0,7.47-1.11,7.47-1.11l.17-1.8a7,7,0,0,1-2.19-.65c-.47-.39-.26-1.12-.26-1.92a1.9,1.9,0,0,0-.56-1.35,1.78,1.78,0,0,0-1.33-.58,1.8,1.8,0,0,0-1.15.41,2.1,2.1,0,0,0-.59-1.43,2,2,0,0,0-2.86,0l-.06.08v0a2.2,2.2,0,0,0-.62-1.54,2.08,2.08,0,0,0-1.5-.64,2.06,2.06,0,0,0-1.89,1.2,2.47,2.47,0,0,0-.44-.63,2.16,2.16,0,0,0-3.13,0m49.1,16.7h0a1.17,1.17,0,0,1,1.16-1.19,1.13,1.13,0,0,1,.45.09,1.18,1.18,0,1,1-1.61,1.1m1.49-2.26a1.23,1.23,0,0,1,.64-2.26,1.16,1.16,0,0,1,.53.14,1.24,1.24,0,0,1-.53,2.34,1.12,1.12,0,0,1-.64-.22m-10.86-1.38a1.52,1.52,0,0,1-.22-.34l0-.07a1.16,1.16,0,0,1-.1-.49,1.27,1.27,0,0,1,1.25-1.3,1.34,1.34,0,0,1,.49.1,1.3,1.3,0,0,1,.76,1.2,1.26,1.26,0,0,1-1.25,1.28,1.22,1.22,0,0,1-.89-.38m10-3.13a1.33,1.33,0,0,1,1.3-1.35h0a1.34,1.34,0,0,1,0,2.68h0a1.32,1.32,0,0,1-1.3-1.33m-8.84-.16a1.54,1.54,0,0,1-.91-1.42,1.52,1.52,0,0,1,1.5-1.54h0a1.44,1.44,0,0,1,.81.25h0l.05,0a1.54,1.54,0,0,1,.61,1.23h0a1.52,1.52,0,0,1-1.49,1.54,1.63,1.63,0,0,1-.59-.12m-15.86-1.7c3.19-.44,8.22-2.81,10.24-2.81A1.23,1.23,0,0,1,137.22,49a1,1,0,0,1-.08.43A50.13,50.13,0,0,1,129,50.86c-2.61,0-3-.26-3.28-.37m22.71-1.4a1.41,1.41,0,0,1,1.4-1.44,1.37,1.37,0,0,1,.54.11l0,0,.21.12.12.09.09.08.06.07a1.5,1.5,0,0,1,.35,1,1.43,1.43,0,0,1-1.4,1.44h0a1.42,1.42,0,0,1-1.4-1.44M127.62,48a1.21,1.21,0,0,1-.58-.58l0,0-.05-.22,0-.25h0a1.18,1.18,0,0,1,1.15-1.19,1.14,1.14,0,0,1,.45.1,1.2,1.2,0,0,1-.45,2.29,1.14,1.14,0,0,1-.45-.1m17.9.53a1.58,1.58,0,0,1-.83-1.4,1.56,1.56,0,0,1,1.54-1.59,1.54,1.54,0,0,1,.87.27,1.61,1.61,0,0,1,.68,1.32,1.57,1.57,0,0,1-1.55,1.59,1.53,1.53,0,0,1-.71-.19m-5.2-1.69a1.57,1.57,0,0,1,1.55-1.59,1.54,1.54,0,0,1,.6.13,1.6,1.6,0,0,1-.6,3.05h0a1.58,1.58,0,0,1-1.55-1.59m-10.38-1.41a1.33,1.33,0,0,1,1.3-1.34,1.22,1.22,0,0,1,.67.22,1.32,1.32,0,1,1-2,1.12m4.16-.22h0l0,0a1.43,1.43,0,0,1-.56-1.14h0a1.4,1.4,0,0,1,1.94-1.33,1.44,1.44,0,0,1,.85,1.33,1.41,1.41,0,0,1-1.39,1.44h0a1.29,1.29,0,0,1-.75-.24m3.15-1.2a1.52,1.52,0,0,1,1.5-1.53,1.41,1.41,0,0,1,.81.25,1.55,1.55,0,0,1,.69,1.28,1.5,1.5,0,1,1-3,0m-.07-1.61a2.43,2.43,0,0,0-.43.63,2.17,2.17,0,0,0-.39-.56,2.08,2.08,0,0,0-3,0,2.2,2.2,0,0,0-.63,1.54v0l0-.08a2,2,0,0,0-2.87,0,2.1,2.1,0,0,0-.59,1.43,1.76,1.76,0,0,0-1.15-.41,1.78,1.78,0,0,0-1.33.58,1.93,1.93,0,0,0-.55,1.35c0,.8.21,1.53-.26,1.92a7,7,0,0,1-2.19.65l.16,1.8s2.24,1.11,7.48,1.11a26.72,26.72,0,0,0,5.65-.61s-.6,2.85-.72,3.38a6.44,6.44,0,0,1,3.23,1.12c.4,0,1.17.32,1.72.32a2,2,0,0,0,1.41-.6,2.1,2.1,0,0,0,.57-1.43,2.21,2.21,0,0,0-.71-1.57,2.12,2.12,0,0,0,1.15-.63,3.56,3.56,0,0,0,.65-1.61,3.64,3.64,0,0,1,3.24,3.4c0,2-1,3.66-1.44,5.24l2.56,1.64c.1-.14.24-.27.65-.27s1.29.29,1.56.27a1.94,1.94,0,0,0,1.33-.56,2,2,0,0,0,0-2.71,1.78,1.78,0,0,0,1-.54,2,2,0,0,0,0-2.8,1.66,1.66,0,0,0-.45-.35,2.69,2.69,0,0,0,.32-.27,2.14,2.14,0,0,0,0-3,2,2,0,0,0-1.44-.61h-.1a2.27,2.27,0,0,0,.33-1.17,2.2,2.2,0,0,0-.62-1.55,2.08,2.08,0,0,0-2.79-.19v-.2a2.33,2.33,0,0,0-.66-1.65,2.23,2.23,0,0,0-3.21,0,2.31,2.31,0,0,0-.54.9,2.36,2.36,0,0,0-.62-1.19,2.2,2.2,0,0,0-2.62-.44A2.25,2.25,0,0,0,141,44a2.29,2.29,0,0,0-.65-1.61,2.17,2.17,0,0,0-3.14,0m-17.45-7.07a.65.65,0,0,0,.13.45.8.8,0,0,0-.43-.13.76.76,0,0,0,0,1.52c.25,0,.3-.06.3-.06v1.66h-1.6s.06-.07.06-.32a.74.74,0,1,0-1.48,0,.91.91,0,0,0,.12.44.61.61,0,0,0-.42-.12.72.72,0,0,0-.75.76.74.74,0,0,0,.75.77.56.56,0,0,0,.42-.14.92.92,0,0,0-.12.45.74.74,0,1,0,1.48,0c0-.26-.06-.31-.06-.31h1.6v1.1a4.2,4.2,0,0,0-3.28,3.17,12.8,12.8,0,0,1,3.06-.64l.22-2.37h1.49l.23,2.37a12.91,12.91,0,0,1,3.06.64,4.19,4.19,0,0,0-3.29-3.17v-1.1h1.6s-.06,0-.06.31a.74.74,0,1,0,1.48,0,.92.92,0,0,0-.12-.45.58.58,0,0,0,.44.14.73.73,0,0,0,.74-.77.72.72,0,0,0-.74-.76.64.64,0,0,0-.44.12.91.91,0,0,0,.12-.44.74.74,0,1,0-1.48,0c0,.25.06.32.06.32h-1.6V37.13s.06.06.31.06a.76.76,0,0,0,0-1.52.86.86,0,0,0-.44.13.65.65,0,0,0,.13-.45.75.75,0,1,0-1.49,0"/></clipPath></defs><g id="Layout"><path class="cls-2" d="M120.47,283.47a7.07,7.07,0,0,1,6.08,3.45c1,1.65,3.18,3,4.86,2.77,45.72-6.58,81.19-53.77,81.19-111.11,0-43-19.78-80.45-49.11-99a8.44,8.44,0,0,1-2.69-11.63,21.31,21.31,0,0,0,3.61-11.23c0-15.65-19.67-28.34-43.94-28.34S76.53,41,76.53,56.69a21.31,21.31,0,0,0,3.61,11.23,8.45,8.45,0,0,1-2.68,11.63c-29.34,18.58-49.11,56.08-49.11,99,0,57.34,35.46,104.53,81.19,111.11,1.67.24,3.87-1.12,4.86-2.77A7.06,7.06,0,0,1,120.47,283.47Z"/><path class="cls-3" d="M120.51,81.32c-42.65,0-77.35,43.6-77.35,97.19s34.7,97.18,77.35,97.18,77.35-43.6,77.35-97.18S163.16,81.32,120.51,81.32Z"/><path class="cls-1" d="M145.22,83.67l.34.13c31.82,13.15,54.85,50.63,54.85,94.71,0,55-35.84,99.73-79.9,99.73s-79.9-44.74-79.9-99.73c0-44.08,23-81.56,54.85-94.71l.34-.13L90.05,65.09l3.48,16.54c-33.29,14.25-55.65,53.18-55.65,96.88C37.88,235,75,281,120.51,281s82.63-46,82.63-102.46c0-43.7-22.36-82.63-55.65-96.88L151,65.09Z"/><polygon class="cls-4" points="178.79 257.06 177.01 255.48 177.47 254.97 177.15 254.69 175.94 256.05 176.26 256.33 176.71 255.82 178.49 257.4 178.79 257.06"/><path class="cls-4" d="M180.44,255.21a.88.88,0,0,0-.12-1.35l-1.44-1.21-.3.35,1.43,1.2c.29.24.33.48.11.74s-.46.27-.75,0l-1.43-1.19-.29.35,1.44,1.21a.85.85,0,0,0,1.35-.12"/><path class="cls-4" d="M181.34,252.06a.37.37,0,0,1,.59-.07.37.37,0,0,1,.07.59l-.31.39-.66-.52Zm-1-.61c.15-.19.33-.28.56-.09a.34.34,0,0,1,0,.56l-.24.3-.6-.47Zm1.84.19a.6.6,0,0,0-.83,0,.58.58,0,0,0-.19-.66.71.71,0,0,0-1.1.16l-.57.72,2.19,1.74.6-.75a.76.76,0,0,0-.1-1.2"/><path class="cls-4" d="M182.11,249.14c.23-.3.58-.34,1.19.12s.67.8.45,1.11-.58.34-1.19-.12-.68-.8-.45-1.11m-.33-.25c-.4.53-.27,1.16.5,1.73s1.41.53,1.8,0,.27-1.15-.5-1.73-1.41-.53-1.8,0"/><path class="cls-4" d="M183.87,246.8a.37.37,0,0,1,.58-.1.38.38,0,0,1,.1.58l-.26.37-.68-.48Zm1.68,1.74-.92-.64.22-.31,1.21.22.29-.4-1.35-.25a.73.73,0,0,0-.32-.86c-.45-.32-.83-.2-1.16.26l-.52.74,2.28,1.62Z"/><path class="cls-4" d="M187.4,245.93c.44-.67.13-1.21-.6-1.7l-.07,0-.6.89.35.24.33-.5c.39.28.44.58.24.87s-.56.38-1.2-.05-.71-.76-.5-1.08a.56.56,0,0,1,.74-.2l.25-.38a1,1,0,0,0-1.34.35c-.37.55-.2,1.16.6,1.7s1.43.45,1.8-.1"/><rect class="cls-4" x="188" y="243.82" width="0.48" height="0.52" transform="translate(-118.83 270.85) rotate(-57.34)"/><path class="cls-4" d="M187.56,241.19c.19-.31.52-.43,1.17,0s.68.75.5,1.06l-.26.42-1.67-1Zm1.52,2.05.5-.81c.34-.55.24-1.15-.62-1.67s-1.43-.34-1.76.21l-.5.81Z"/><polygon class="cls-4" points="190.89 240.24 189.74 239.59 191.35 239.44 191.63 238.94 189.78 239.14 189.15 237.65 188.88 238.12 189.45 239.42 188.46 238.85 188.23 239.25 190.66 240.64 190.89 240.24"/><path class="cls-4" d="M49.64,239.55c.4.7,1,.66,1.79.22l.07,0-.55-.94-.36.22.3.51c-.42.23-.71.14-.89-.18s-.08-.66.58-1,1-.31,1.19,0a.57.57,0,0,1-.14.76l.23.39a1,1,0,0,0,.27-1.35c-.33-.58-1-.7-1.78-.22s-1,1.08-.71,1.65"/><path class="cls-4" d="M53.2,240.81a.38.38,0,0,1-.14.58.39.39,0,0,1-.58-.14l-.23-.39.72-.44Zm-2.27.86,1-.59.2.33-.69,1,.26.43.76-1.15a.73.73,0,0,0,.92,0,.75.75,0,0,0,.22-1.17l-.48-.78-2.39,1.47Z"/><path class="cls-4" d="M52.58,244.38a.88.88,0,0,0,1.33.29l1.57-1-.25-.39-1.56,1c-.31.2-.55.17-.74-.12s-.12-.51.2-.72l1.56-1-.25-.38-1.57,1a.85.85,0,0,0-.29,1.32"/><polygon class="cls-4" points="54.86 247.71 57.16 246.13 56.92 245.76 55.07 247.03 56.4 245.01 56.04 244.48 53.73 246.06 53.98 246.42 55.83 245.16 54.5 247.18 54.86 247.71"/><path class="cls-4" d="M58,248c.22.29.2.64-.41,1.09s-1,.36-1.17.07l-.29-.41,1.58-1.16Zm-2.48.63.56.77c.38.52,1,.65,1.78.06s.86-1.19.48-1.71l-.56-.78Z"/><polygon class="cls-4" points="58.28 252.31 58.62 252.06 57.97 251.22 59.85 249.77 59.57 249.4 57.36 251.11 58.28 252.31"/><path class="cls-4" d="M60.08,252.83l1.27-.59-.83,1.13Zm.09,1.81,1.66-2.39-.38-.47-2.67,1.16.29.36.62-.29.58.71-.4.55Z"/><path class="cls-4" d="M61.33,256.06c.52.6,1.13.45,1.8-.13l.06-.05-.71-.82-.32.28.39.45c-.37.3-.67.26-.91,0s-.2-.64.37-1.14.93-.49,1.18-.2a.56.56,0,0,1,0,.77l.3.35a1,1,0,0,0,0-1.39c-.44-.5-1.07-.5-1.8.12s-.82,1.27-.38,1.77"/><polygon class="cls-4" points="63.33 258.24 65.09 256.64 65.55 257.14 65.86 256.86 64.63 255.52 64.32 255.8 64.78 256.3 63.02 257.9 63.33 258.24"/><rect class="cls-4" x="64.83" y="259.03" width="2.8" height="0.46" transform="translate(-162.16 119.83) rotate(-44.27)"/><polygon class="cls-4" points="67.3 262.3 68.17 261.39 68.89 262.08 68.02 263 68.36 263.31 70.29 261.29 69.96 260.97 69.19 261.78 68.46 261.09 69.24 260.28 68.9 259.96 66.97 261.99 67.3 262.3"/><polygon class="cls-4" points="70.46 265.22 70.74 264.9 69.89 264.14 70.47 263.5 71.26 264.21 71.54 263.89 70.75 263.19 71.2 262.68 72.02 263.41 72.3 263.1 71.14 262.06 69.27 264.15 70.46 265.22"/><polygon class="cls-4" points="72.41 266.87 72.68 266.55 71.86 265.87 73.4 264.05 73.05 263.75 71.24 265.89 72.41 266.87"/><polygon class="cls-4" points="74.34 268.44 74.6 268.11 73.78 267.45 75.27 265.59 74.91 265.31 73.15 267.49 74.34 268.44"/><polygon class="cls-4" points="76.39 270 76.64 269.66 75.73 268.97 76.25 268.29 77.1 268.93 77.35 268.59 76.5 267.95 76.91 267.41 77.79 268.07 78.05 267.74 76.8 266.8 75.11 269.03 76.39 270"/><path class="cls-4" d="M79.36,269.2a.42.42,0,1,1-.48.68l-.37-.26.48-.68Zm-1.74,1.68.65-.91.31.22-.23,1.21.41.28.24-1.35a.73.73,0,0,0,.86-.32c.33-.45.2-.83-.26-1.16l-.74-.52-1.62,2.29Z"/><path class="cls-4" d="M80.31,272.76a.87.87,0,0,0,1.32-.28l1-1.58-.39-.25-1,1.56c-.21.32-.44.38-.73.2s-.32-.43-.11-.75l1-1.55-.39-.25-1,1.57a.85.85,0,0,0,.28,1.33"/><path class="cls-4" d="M84.18,272.34a.38.38,0,0,1,.15.58.39.39,0,0,1-.58.14l-.43-.26.44-.72Zm-1.66,1.78.58-1,.43.26a.79.79,0,0,0,1.19-.27A.75.75,0,0,0,84.4,272l-.82-.5-1.45,2.4Z"/><path class="cls-3" d="M100.59,59.22a7.15,7.15,0,0,0,.62,1.27,2,2,0,0,0-.91.52,2.45,2.45,0,0,0-.63,1.77,1.85,1.85,0,0,0-1.27-.49l-.26,0c0-.1,0-.21,0-.31a6.34,6.34,0,0,0-.12-.93,13.42,13.42,0,0,1,2.56-1.85"/><path class="cls-3" d="M117.08,54.1a2.34,2.34,0,0,0-.71,1.77A4.72,4.72,0,0,0,116.5,57h-.18a2.32,2.32,0,0,0-1.66.73,4.73,4.73,0,0,0-1,3.38,4.93,4.93,0,0,0,1,3.39,4.55,4.55,0,0,1-1-.46l-.6-.39-.39.6a2,2,0,0,1-1,.69,4.23,4.23,0,0,0,.51-2.21A5.11,5.11,0,0,0,110.9,59a3.08,3.08,0,0,0-2-1,3.19,3.19,0,0,0-1.19.24,3.67,3.67,0,0,0-.89-2.22c1.06-.72,7.82-2.22,10.23-1.91"/><path class="cls-3" d="M140.36,59.22a6,6,0,0,1-.62,1.27,2,2,0,0,1,.92.52,2.49,2.49,0,0,1,.63,1.77,1.85,1.85,0,0,1,1.27-.49l.25,0c0-.1,0-.21,0-.31a8.13,8.13,0,0,1,.12-.93,13.11,13.11,0,0,0-2.56-1.85"/><path class="cls-3" d="M123.87,54.1a2.38,2.38,0,0,1,.72,1.77,4.69,4.69,0,0,1-.14,1.12h.19a2.3,2.3,0,0,1,1.65.73,4.69,4.69,0,0,1,1,3.38,4.93,4.93,0,0,1-1,3.39,4.1,4.1,0,0,0,1-.46l.61-.39.38.6a2.07,2.07,0,0,0,1,.69,4.23,4.23,0,0,1-.52-2.21,5.11,5.11,0,0,1,1.35-3.7,3.06,3.06,0,0,1,2-1,3.21,3.21,0,0,1,1.2.24A3.71,3.71,0,0,1,134.1,56c-1-.72-7.81-2.22-10.23-1.91"/><path class="cls-1" d="M99.71,81.46A79.09,79.09,0,0,1,120.47,79a79.62,79.62,0,0,1,20.78,2.43c-.52-2-9.6-4.21-20.78-4.21s-20.23,2.2-20.76,4.21m-.85-4.8c0-.91.07-1.65.28-1.67s.43.7.5,1.61-.07,1.65-.28,1.66h0c-.2,0-.42-.71-.49-1.6m42.46-.06c.06-.91.28-1.63.49-1.61s.34.76.28,1.67-.28,1.6-.49,1.6h0c-.21,0-.33-.76-.27-1.66M102,74.49c0-1.07.47-1.94,1.06-1.94s1.06.87,1.06,1.94-.48,1.93-1.06,1.93S102,75.56,102,74.49m34.82,0c0-1.07.47-1.94,1.06-1.94s1.06.87,1.06,1.94-.47,1.93-1.06,1.93-1.06-.86-1.06-1.93m-30.19-.84a11.2,11.2,0,0,1,1.23-2.53,10.37,10.37,0,0,1,1.37,2.21,19.42,19.42,0,0,1-1.3,2.31,16.05,16.05,0,0,1-1.3-2m25.08-.32a9.63,9.63,0,0,1,1.37-2.21,10.76,10.76,0,0,1,1.22,2.53,16.13,16.13,0,0,1-1.29,2,17,17,0,0,1-1.3-2.31m-19.79-.66a1.74,1.74,0,1,1,1.73,1.78,1.77,1.77,0,0,1-1.73-1.78m13.62,0a1.74,1.74,0,1,1,1.74,1.78,1.77,1.77,0,0,1-1.74-1.78m-7.27,1.67a35.12,35.12,0,0,1-.1-3.74,8.47,8.47,0,0,1,2.29-.22,8.6,8.6,0,0,1,2.31.22,32.61,32.61,0,0,1-.11,3.74c-.51,0-1.41.07-2.2.07s-1.68,0-2.19-.07M99.2,72.52l-.39.25L99,73.93s-.89.28-.89,2.24c0,2.81,1.4,3.12,1.4,3.12l.14.42c2.81-2.11,11.49-3.65,20.84-3.65s18.05,1.54,20.86,3.65l.13-.42s1.4-.31,1.4-3.12c0-2-.88-2.24-.88-2.24l.16-1.16-.39-.25c-.07,0-6.6-4-21.28-4s-21.19,4-21.27,4m-3-5.4c-.38-.58-.53-1.16-.33-1.3s.67.23,1.05.8.52,1.17.32,1.3l-.1,0c-.23,0-.62-.33-.94-.83m47.61.8c-.2-.13-.06-.72.33-1.3s.85-.94,1-.8.06.72-.32,1.3-.72.83-.95.83Zm-39.21-5.08c0-.63.13-1.91.25-2.69a11.16,11.16,0,0,1,1.88,2.24,18.15,18.15,0,0,1-.31,2.69,20.3,20.3,0,0,1-1.82-2.24m29.73-.45a11.13,11.13,0,0,1,1.87-2.24c.12.78.2,2.06.26,2.69a19.26,19.26,0,0,1-1.83,2.24,16.9,16.9,0,0,1-.3-2.69m-15-.13s0-1.47,0-1.95,0-2,0-2a6.42,6.42,0,0,1,2.57,0s0,1.52,0,2,0,1.95,0,1.95-.79.07-1.26.07-1.24-.07-1.24-.07m-2.14-6.39a3.67,3.67,0,0,0,.68,2.16,4.87,4.87,0,0,0-1.45-.29c-.68,0-2,.52-2,3.36s1.47,3.67,2.53,3.67a3,3,0,0,0,.47-.07s-.41.7-1.84.7a4.71,4.71,0,0,1-2.18-.74,3.13,3.13,0,0,1-2.64,1.2,1.57,1.57,0,0,1-1.21-.5s2,.35,2-2.64-2-4-2.59-4a3,3,0,0,0-2,.9s.06-.6.06-1.17A2.27,2.27,0,0,0,104.77,56c-1.87,0-3.63,1-3.63,2.38,0,1,1.45,2.86,1.45,2.86a2,2,0,0,0-.5,0,1.48,1.48,0,0,0-1.7,1.68c0,1.58,1.34,3.81,2.94,3.81a2.18,2.18,0,0,0,1.35-.4,1.89,1.89,0,0,1-2,1.16,1.28,1.28,0,0,1-1.15-.46s-.23,1.26-1.2,1.26-1-.3-1-.3,2.3-.4,1-3C99.45,63.27,98.89,63,98.4,63s-1.23.74-1.23.74A7.71,7.71,0,0,0,97.43,62c0-.84-.4-2-1.58-2-1.63,0-4.2,2.59-4.2,2.59s3.12,1.49,3.68,2.5a1.21,1.21,0,0,0-.27.79,2.74,2.74,0,0,0,2.69,2.86,17.58,17.58,0,0,1,.85,2.76s6.61-4.2,21.87-4.2,21.88,4.2,21.88,4.2a17.58,17.58,0,0,1,.85-2.76,2.74,2.74,0,0,0,2.69-2.86,1.27,1.27,0,0,0-.26-.79c.55-1,3.67-2.5,3.67-2.5S146.73,60,145.11,60c-1.19,0-1.59,1.15-1.59,2a7.71,7.71,0,0,0,.26,1.77s-.73-.74-1.22-.74-1.06.24-1.88,1.86c-1.32,2.6,1,3,1,3s-.07.3-1,.3-1.2-1.26-1.2-1.26-.26.46-1.15.46a1.9,1.9,0,0,1-2-1.16,2.2,2.2,0,0,0,1.34.4c1.61,0,2.95-2.23,2.95-3.81a1.48,1.48,0,0,0-1.7-1.68,2,2,0,0,0-.5,0s1.46-1.82,1.46-2.86c0-1.37-1.76-2.38-3.63-2.38a2.28,2.28,0,0,0-2.25,2.51c0,.57.06,1.17.06,1.17a3,3,0,0,0-2-.9c-.56,0-2.59,1-2.59,4s2,2.64,2,2.64a1.56,1.56,0,0,1-1.2.5,3.11,3.11,0,0,1-2.64-1.2,4.77,4.77,0,0,1-2.19.74c-1.43,0-1.84-.7-1.84-.7a3,3,0,0,0,.48.07c1.06,0,2.52-.82,2.52-3.67s-1.29-3.36-2-3.36a4.89,4.89,0,0,0-1.46.29,3.63,3.63,0,0,0,.69-2.16c0-1.58-1.85-2.21-3.4-2.21s-3.38.63-3.38,2.21m2.51-3.64a1.3,1.3,0,0,1-.42-1,1.32,1.32,0,0,1,1.29-1.34,1.28,1.28,0,0,1,.58.15,1.34,1.34,0,0,1-.58,2.53,1.23,1.23,0,0,1-.87-.37m-.71-4.37a1.61,1.61,0,0,1,1.58-1.64,1.44,1.44,0,0,1,.62.13,1.64,1.64,0,0,1,1,1.51,1.59,1.59,0,1,1-3.18,0m-2.53-1.69A4.34,4.34,0,0,0,117.9,49l-.46,4.8a5.79,5.79,0,0,1,6.07,0l-.46-4.8a4.25,4.25,0,0,0,1.54-2.81,10.86,10.86,0,0,0-8.23,0M88.89,59.12h0a1.16,1.16,0,1,1,2.32,0h0a1.16,1.16,0,1,1-2.32,0m-1-3.28h0a1.21,1.21,0,1,1,2.41,0h0a1.21,1.21,0,1,1-2.41,0m10.57-1.26a1.27,1.27,0,0,1,1.25-1.3,1.26,1.26,0,0,1,1.26,1.3,1.26,1.26,0,1,1-2.51,0M88,52.35a1.3,1.3,0,1,1,1.3,1.33A1.33,1.33,0,0,1,88,52.35M98,52,97.89,52l-.11-.09-.09-.13-.09-.1,0-.09a1.51,1.51,0,0,1-.22-.77h0a1.53,1.53,0,0,1,1.5-1.54h0a1.54,1.54,0,0,1,0,3.08A1.4,1.4,0,0,1,98,52m5.81-2.57a.94.94,0,0,1-.09-.43A1.23,1.23,0,0,1,105,47.68c2,0,7.06,2.37,10.24,2.81-.29.11-.66.37-3.27.37a50.13,50.13,0,0,1-8.19-1.39m-14-.38a1.4,1.4,0,1,1,1.4,1.44,1.41,1.41,0,0,1-1.4-1.44M112.43,48a1.2,1.2,0,0,1-.71-1.1,1.18,1.18,0,0,1,1.16-1.19,1.14,1.14,0,0,1,.45.1,1.2,1.2,0,0,1-.45,2.29,1.14,1.14,0,0,1-.45-.1m-19.25-.87h0a1.54,1.54,0,1,1,3.08,0h0a1.54,1.54,0,1,1-3.08,0m4.36-.29a1.53,1.53,0,0,1,2.15-1.46,1.6,1.6,0,0,1-.61,3.05h0a1.57,1.57,0,0,1-1.54-1.59m10.87-1.41a1.32,1.32,0,0,1,1.3-1.34,1.25,1.25,0,0,1,.79.3,1.32,1.32,0,1,1-2.09,1m-3.55-.77,0-.09,0-.06a1.64,1.64,0,0,1-.09-.5h0a1.41,1.41,0,0,1,1.4-1.44,1.32,1.32,0,0,1,.78.25l.08.06.13.11.07.1.1.12,0,.07.09.17h0a1.45,1.45,0,0,1,.1.55h0a1.41,1.41,0,0,1-1.39,1.44h0a1.37,1.37,0,0,1-1.24-.79m-3.65.5-.06-.06h0a1.56,1.56,0,0,1-.44-1.09h0a1.5,1.5,0,1,1,3,0h0a1.52,1.52,0,0,1-1.5,1.54h0a1.46,1.46,0,0,1-1-.39m-.57-2.76A2.29,2.29,0,0,0,100,44a2.55,2.55,0,0,0,.11.74,2.17,2.17,0,0,0-1-.25,2.2,2.2,0,0,0-1.59.69,2.3,2.3,0,0,0-.63,1.19,2.31,2.31,0,0,0-.54-.9,2.23,2.23,0,0,0-3.21,0,2.37,2.37,0,0,0-.66,1.65v.2a2.06,2.06,0,0,0-1.28-.45,2.1,2.1,0,0,0-1.51.64,2.26,2.26,0,0,0-.28,2.72h-.11a2,2,0,0,0-1.43.61,2.14,2.14,0,0,0,0,3,2.08,2.08,0,0,0,.32.27,1.7,1.7,0,0,0-.46.35,2,2,0,0,0,0,2.8,1.78,1.78,0,0,0,1,.54,2,2,0,0,0,0,2.71,2,2,0,0,0,1.33.56c.27,0,1.15-.27,1.56-.27a.71.71,0,0,1,.66.27l2.55-1.64c-.45-1.58-1.43-3.21-1.43-5.24a3.64,3.64,0,0,1,3.24-3.4,3.44,3.44,0,0,0,.64,1.61,2.16,2.16,0,0,0,1.15.63,2.24,2.24,0,0,0-.7,1.57A2,2,0,0,0,98.3,56a2,2,0,0,0,1.39.6c.56,0,1.33-.32,1.72-.32a6.51,6.51,0,0,1,3.24-1.12c-.13-.53-.72-3.38-.72-3.38a26.72,26.72,0,0,0,5.65.61c5.24,0,7.47-1.11,7.47-1.11l.17-1.8a7,7,0,0,1-2.19-.65c-.47-.39-.26-1.12-.26-1.92a1.9,1.9,0,0,0-.56-1.35,1.78,1.78,0,0,0-1.33-.58,1.8,1.8,0,0,0-1.15.41,2.1,2.1,0,0,0-.59-1.43,2,2,0,0,0-2.86,0l-.06.08v0a2.2,2.2,0,0,0-.62-1.54,2.08,2.08,0,0,0-1.5-.64,2.06,2.06,0,0,0-1.89,1.2,2.47,2.47,0,0,0-.44-.63,2.16,2.16,0,0,0-3.13,0m49.1,16.7h0a1.17,1.17,0,0,1,1.16-1.19,1.13,1.13,0,0,1,.45.09,1.18,1.18,0,1,1-1.61,1.1m1.49-2.26a1.23,1.23,0,0,1,.64-2.26,1.16,1.16,0,0,1,.53.14,1.24,1.24,0,0,1-.53,2.34,1.12,1.12,0,0,1-.64-.22m-10.86-1.38a1.52,1.52,0,0,1-.22-.34l0-.07a1.16,1.16,0,0,1-.1-.49,1.27,1.27,0,0,1,1.25-1.3,1.34,1.34,0,0,1,.49.1,1.3,1.3,0,0,1,.76,1.2,1.26,1.26,0,0,1-1.25,1.28,1.22,1.22,0,0,1-.89-.38m10-3.13a1.33,1.33,0,0,1,1.3-1.35h0a1.34,1.34,0,0,1,0,2.68h0a1.32,1.32,0,0,1-1.3-1.33m-8.84-.16a1.54,1.54,0,0,1-.91-1.42,1.52,1.52,0,0,1,1.5-1.54h0a1.44,1.44,0,0,1,.81.25h0l.05,0a1.54,1.54,0,0,1,.61,1.23h0a1.52,1.52,0,0,1-1.49,1.54,1.63,1.63,0,0,1-.59-.12m-15.86-1.7c3.19-.44,8.22-2.81,10.24-2.81A1.23,1.23,0,0,1,137.22,49a1,1,0,0,1-.08.43A50.13,50.13,0,0,1,129,50.86c-2.61,0-3-.26-3.28-.37m22.71-1.4a1.41,1.41,0,0,1,1.4-1.44,1.37,1.37,0,0,1,.54.11l0,0,.21.12.12.09.09.08.06.07a1.5,1.5,0,0,1,.35,1,1.43,1.43,0,0,1-1.4,1.44h0a1.42,1.42,0,0,1-1.4-1.44M127.62,48a1.21,1.21,0,0,1-.58-.58l0,0-.05-.22,0-.25h0a1.18,1.18,0,0,1,1.15-1.19,1.14,1.14,0,0,1,.45.1,1.2,1.2,0,0,1-.45,2.29,1.14,1.14,0,0,1-.45-.1m17.9.53a1.58,1.58,0,0,1-.83-1.4,1.56,1.56,0,0,1,1.54-1.59,1.54,1.54,0,0,1,.87.27,1.61,1.61,0,0,1,.68,1.32,1.57,1.57,0,0,1-1.55,1.59,1.53,1.53,0,0,1-.71-.19m-5.2-1.69a1.57,1.57,0,0,1,1.55-1.59,1.54,1.54,0,0,1,.6.13,1.6,1.6,0,0,1-.6,3.05h0a1.58,1.58,0,0,1-1.55-1.59m-10.38-1.41a1.33,1.33,0,0,1,1.3-1.34,1.22,1.22,0,0,1,.67.22,1.32,1.32,0,1,1-2,1.12m4.16-.22h0l0,0a1.43,1.43,0,0,1-.56-1.14h0a1.4,1.4,0,0,1,1.94-1.33,1.44,1.44,0,0,1,.85,1.33,1.41,1.41,0,0,1-1.39,1.44h0a1.29,1.29,0,0,1-.75-.24m3.15-1.2a1.52,1.52,0,0,1,1.5-1.53,1.41,1.41,0,0,1,.81.25,1.55,1.55,0,0,1,.69,1.28,1.5,1.5,0,1,1-3,0m-.07-1.61a2.43,2.43,0,0,0-.43.63,2.17,2.17,0,0,0-.39-.56,2.08,2.08,0,0,0-3,0,2.2,2.2,0,0,0-.63,1.54v0l0-.08a2,2,0,0,0-2.87,0,2.1,2.1,0,0,0-.59,1.43,1.76,1.76,0,0,0-1.15-.41,1.78,1.78,0,0,0-1.33.58,1.93,1.93,0,0,0-.55,1.35c0,.8.21,1.53-.26,1.92a7,7,0,0,1-2.19.65l.16,1.8s2.24,1.11,7.48,1.11a26.72,26.72,0,0,0,5.65-.61s-.6,2.85-.72,3.38a6.44,6.44,0,0,1,3.23,1.12c.4,0,1.17.32,1.72.32a2,2,0,0,0,1.41-.6,2.1,2.1,0,0,0,.57-1.43,2.21,2.21,0,0,0-.71-1.57,2.12,2.12,0,0,0,1.15-.63,3.56,3.56,0,0,0,.65-1.61,3.64,3.64,0,0,1,3.24,3.4c0,2-1,3.66-1.44,5.24l2.56,1.64c.1-.14.24-.27.65-.27s1.29.29,1.56.27a1.94,1.94,0,0,0,1.33-.56,2,2,0,0,0,0-2.71,1.78,1.78,0,0,0,1-.54,2,2,0,0,0,0-2.8,1.66,1.66,0,0,0-.45-.35,2.69,2.69,0,0,0,.32-.27,2.14,2.14,0,0,0,0-3,2,2,0,0,0-1.44-.61h-.1a2.27,2.27,0,0,0,.33-1.17,2.2,2.2,0,0,0-.62-1.55,2.08,2.08,0,0,0-2.79-.19v-.2a2.33,2.33,0,0,0-.66-1.65,2.23,2.23,0,0,0-3.21,0,2.31,2.31,0,0,0-.54.9,2.36,2.36,0,0,0-.62-1.19,2.2,2.2,0,0,0-2.62-.44A2.25,2.25,0,0,0,141,44a2.29,2.29,0,0,0-.65-1.61,2.17,2.17,0,0,0-3.14,0m-17.45-7.07a.65.65,0,0,0,.13.45.8.8,0,0,0-.43-.13.76.76,0,0,0,0,1.52c.25,0,.3-.06.3-.06v1.66h-1.6s.06-.07.06-.32a.74.74,0,1,0-1.48,0,.91.91,0,0,0,.12.44.61.61,0,0,0-.42-.12.72.72,0,0,0-.75.76.74.74,0,0,0,.75.77.56.56,0,0,0,.42-.14.92.92,0,0,0-.12.45.74.74,0,1,0,1.48,0c0-.26-.06-.31-.06-.31h1.6v1.1a4.2,4.2,0,0,0-3.28,3.17,12.8,12.8,0,0,1,3.06-.64l.22-2.37h1.49l.23,2.37a12.91,12.91,0,0,1,3.06.64,4.19,4.19,0,0,0-3.29-3.17v-1.1h1.6s-.06,0-.06.31a.74.74,0,1,0,1.48,0,.92.92,0,0,0-.12-.45.58.58,0,0,0,.44.14.73.73,0,0,0,.74-.77.72.72,0,0,0-.74-.76.64.64,0,0,0-.44.12.91.91,0,0,0,.12-.44.74.74,0,1,0-1.48,0c0,.25.06.32.06.32h-1.6V37.13s.06.06.31.06a.76.76,0,0,0,0-1.52.86.86,0,0,0-.44.13.65.65,0,0,0,.13-.45.75.75,0,1,0-1.49,0"/><g class="cls-5"><rect class="cls-1" x="37.88" y="34.59" width="165.26" height="246.38"/></g><path class="cls-1" d="M74.88,111.19l-2.59-2.36.39-.42,2.2,2,.89-1,.39.36Z"/><path class="cls-1" d="M77.1,108.79l-2.49-2.46L76,104.94l.37.37-1,1,.61.6.93-1,.37.37-.93,1,.76.75,1-1,.37.37Z"/><path class="cls-1" d="M77.35,103.65l2.5,1.58-1.34-2.64.42-.39,1.59,3.29-.48.44-3.14-1.88Z"/><path class="cls-1" d="M82.22,104,80,101.29l1.5-1.25.34.4-1.06.88.54.66,1-.85.34.4-1,.85.69.83,1.1-.92.33.41Z"/><path class="cls-1" d="M84.83,101.86l-2.11-2.8.91-.68a.93.93,0,0,1,1.48.14.91.91,0,0,1,0,1.15l1.52.8-.5.38-1.36-.74-.38.29.85,1.12ZM83.5,99.14l.63.84.45-.34a.48.48,0,0,0,.1-.74.47.47,0,0,0-.73-.1Z"/><path class="cls-1" d="M89.22,98.74l-.64-.57-.94.64.28.8-.49.32-1.11-3.46.62-.41,2.78,2.35Zm-1-.93-1.3-1.16.58,1.65Z"/><path class="cls-1" d="M92.14,96.94l-2.41-1.83,1.42,2.41-.47.28-1.77-3,.68-.4L92,96.22,90.58,93.8l.48-.28,1.77,3Z"/><path class="cls-1" d="M92.56,92.7l1.07-.54c.72-.36,1.43-.22,2,.94s.28,1.81-.44,2.18l-1.06.54Zm.75.21,1.11,2.18.56-.28c.4-.21.59-.61.16-1.46s-.87-.93-1.27-.73Z"/><path class="cls-1" d="M97.39,94.21l.1-.55a2.3,2.3,0,0,1-.78-1.06c-.48-1.1-.23-1.86.53-2.18a1.22,1.22,0,0,1,.81-.09l0-.22.42-.18-.09.55a2.37,2.37,0,0,1,.78,1.06c.47,1.1.22,1.86-.54,2.19a1.28,1.28,0,0,1-.81.09l0,.21Zm-.16-1.83a2.6,2.6,0,0,0,.36.62L98,90.88a.67.67,0,0,0-.52,0C97,91.09,96.86,91.5,97.23,92.38Zm1.07-1.24-.36,2.13a.65.65,0,0,0,.51,0c.43-.18.58-.6.21-1.47A2.5,2.5,0,0,0,98.3,91.14Z"/><path class="cls-1" d="M101.08,92.68l-1.17-3.3L101,89c.66-.23,1.14-.09,1.37.58a.92.92,0,0,1-.3,1.11l1.21,1.22-.59.21L101.6,91l-.45.16.47,1.32Zm-.46-3,.36,1,.53-.19a.48.48,0,0,0,.32-.67.47.47,0,0,0-.67-.32Z"/><path class="cls-1" d="M106.38,91l-.76-2.88-.82.22-.13-.51,2.2-.58.13.51-.82.22.75,2.87Z"/><path class="cls-1" d="M109,90.36l-.72-3.43.56-.12.72,3.43Z"/><path class="cls-1" d="M111.1,89.94l-.55-3.46.57-.1.47,3,1.31-.21.08.52Z"/><path class="cls-1" d="M115.45,85.83l1.2-.08c.8,0,1.4.36,1.49,1.66s-.46,1.78-1.26,1.83l-1.19.09Zm.61.49.16,2.44.63,0c.45,0,.78-.33.71-1.28s-.43-1.19-.88-1.16Z"/><path class="cls-1" d="M119.66,89.14l-.08-3.5,2,0v.53l-1.37,0,0,.85,1.32,0v.53l-1.32,0,0,1.07,1.43,0v.53Z"/><path class="cls-1" d="M123.29,89.19l.17-3-.85,0,0-.53,2.27.13,0,.52-.85,0-.16,3Z"/><path class="cls-1" d="M127.35,89.55l.51-3.47.56.09-.2,1.42,1.24-1.27.67.09-1.43,1.42,1.08,2.07-.71-.11L128.16,88l-.24,1.63Z"/><path class="cls-1" d="M130.8,88.31c.25-1.18.89-1.66,1.69-1.49a1.25,1.25,0,0,1,1,1.4L133,88.1c0-.47-.22-.69-.58-.76s-.83.15-1,1.09,0,1.31.5,1.41.76-.1.91-.68L132,89l.11-.51,1.32.28,0,.1c-.23,1.07-.71,1.69-1.69,1.48C130.94,90.18,130.54,89.53,130.8,88.31Z"/><path class="cls-1" d="M134.28,90.89l.93-3.38.55.15L135,90.53l1.28.35-.14.51Z"/><path class="cls-1" d="M137.28,91.77l.2-.62.57.19-.2.61Z"/><path class="cls-1" d="M141.43,89.5l1.11.45c.74.3,1.11.93.62,2.14S142,93.5,141.23,93.2l-1.12-.45Zm.33.7-.92,2.28.58.23c.42.17.85.05,1.21-.84s.13-1.26-.29-1.43Z"/><path class="cls-1" d="M145.3,95l.16-.83-1-.49-.55.65-.52-.25,2.41-2.73.67.32-.6,3.59Zm.26-1.37.34-1.71-1.12,1.34Z"/><path class="cls-1" d="M148.32,96.62l.36-3-1.36,2.44-.48-.26,1.7-3.06.69.39-.35,3,1.36-2.45.48.27L149,97Z"/><path class="cls-1" d="M150.65,96.73l.49.31a.6.6,0,0,0,.23.89.51.51,0,0,0,.78-.1c.13-.2.09-.38-.1-.63l-.41-.53a.93.93,0,0,1-.1-1.14A1,1,0,0,1,153,95.3a1.1,1.1,0,0,1,.41,1.5l-.49-.3a.56.56,0,0,0-.21-.79c-.28-.18-.53-.15-.67.08s-.11.33.11.62l.37.48a1,1,0,0,1,.11,1.23,1,1,0,0,1-1.57.22A1.08,1.08,0,0,1,150.65,96.73Z"/><path class="cls-1" d="M153.18,99.66l2-2.85.47.33-.83,1.17,1.69-.56.55.39-1.93.61,0,2.33-.58-.41v-2l-1,1.35Z"/><path class="cls-1" d="M156.13,101.82l2.18-2.74,1.53,1.21-.32.41-1.08-.85-.53.66,1,.83-.33.41-1-.82-.67.84,1.12.89-.33.41Z"/><path class="cls-1" d="M160,105l2.37-2.58.43.39-.95,1,.92.85,1-1,.42.39-2.37,2.57-.42-.39,1.06-1.16-.92-.84-1.06,1.15Z"/><path class="cls-1" d="M165.85,108.28c-.86.84-1.65.88-2.23.29s-.55-1.35.34-2.22,1.66-.88,2.23-.29S166.74,107.4,165.85,108.28Zm-1.48-1.52c-.68.66-.7,1.11-.37,1.44s.77.33,1.45-.33.7-1.11.37-1.45S165.05,106.1,164.37,106.76Z"/><path class="cls-1" d="M168.17,108.22l1.25,1.39-.4.35-.86-1-.71.64.82.91-.39.35-.82-.92-1.12,1-.38-.43Z"/></g><g id="Cutter"><path class="cls-6" d="M120.47,283.47a7.07,7.07,0,0,1,6.08,3.45c1,1.65,3.18,3,4.86,2.77,45.72-6.58,81.19-53.77,81.19-111.11,0-43-19.78-80.45-49.11-99a8.44,8.44,0,0,1-2.69-11.63,21.31,21.31,0,0,0,3.61-11.23c0-15.65-19.67-28.34-43.94-28.34S76.53,41,76.53,56.69a21.31,21.31,0,0,0,3.61,11.23,8.45,8.45,0,0,1-2.68,11.63c-29.34,18.58-49.11,56.08-49.11,99,0,57.34,35.46,104.53,81.19,111.11,1.67.24,3.87-1.12,4.86-2.77A7.06,7.06,0,0,1,120.47,283.47Z"/></g></svg>
